<?xml version="1.0" encoding="utf-8"?>
<!-- Generator: Adobe Illustrator 27.9.0, SVG Export Plug-In . SVG Version: 6.00 Build 0)  -->
<svg version="1.1" id="home" xmlns="http://www.w3.org/2000/svg" xmlns:xlink="http://www.w3.org/1999/xlink" x="0px" y="0px"
	 viewBox="0 0 32 32" style="enable-background:new 0 0 32 32;" xml:space="preserve">
<style type="text/css">
	.st0{fill:#FFFFFF;}
</style>
<g id="_x39_8XDe6_00000142858308776247402470000000008459909668357000_">
	<g>
		<path class="st0" d="M4.8,14.9c-0.4,0-0.8,0-1.2,0c-0.8,0-1.3-0.3-1.5-0.9c-0.2-0.6,0-1.2,0.6-1.7c2.7-2.1,5.4-4.3,8-6.4
			c1.4-1.1,2.8-2.3,4.3-3.4c0.7-0.6,1.3-0.6,2.1,0c4.1,3.3,8.2,6.6,12.3,9.9c0.9,0.7,0.8,2-0.1,2.4c-0.2,0.1-0.5,0.1-0.7,0.2
			c-0.4,0-0.9,0-1.3,0c0,0.1,0,0.2,0,0.4c0,4.4,0,8.8,0,13.2c0,1-0.6,1.6-1.6,1.6c-1.8,0-3.6,0-5.3,0c-0.9,0-1.5-0.6-1.5-1.5
			c0-1.4,0-2.9,0-4.3c0-1.5-1-2.6-2.5-2.8c-1.6-0.2-3.1,1.1-3.1,2.7c0,1.5,0,2.9,0,4.4c0,1-0.6,1.5-1.5,1.5c-1.8,0-3.6,0-5.3,0
			c-0.9,0-1.5-0.6-1.5-1.5c0-4.4,0-8.8,0-13.2C4.8,15.2,4.8,15,4.8,14.9z"/>
	</g>
</g>
</svg>
