<?xml version="1.0" encoding="utf-8"?>
<!-- Generator: Adobe Illustrator 27.9.0, SVG Export Plug-In . SVG Version: 6.00 Build 0)  -->
<svg version="1.1" id="home" xmlns="http://www.w3.org/2000/svg" xmlns:xlink="http://www.w3.org/1999/xlink" x="0px" y="0px"
	 viewBox="0 0 32 32" style="enable-background:new 0 0 32 32;" xml:space="preserve">
<style type="text/css">
	.st0{fill:#442C2B;}
</style>
<g>
	<path class="st0" d="M14,22.8c1.5,0,2.8,0,4.1,0c0.7,0,1-0.4,1-1c0-1.8,0-3.6,0-5.4c1,0,1.9,0,2.9,0c0,2.7,0,5.5,0,8.2
		c0,0.8-0.7,1.2-1.6,1.2c-1.8,0-3.5,0-5.3,0c-0.3,0-0.6,0-1,0c0,1.7,0,3.4,0,5c0,1.3-0.4,1.5-1.5,0.9c-3.6-1.8-7-3.6-10.5-5.3
		C1.3,26,1,25.4,1,24.5c0-6.7,0-13.3,0-20c0-1.3,0.5-1.8,1.9-1.8c5.8,0,11.5,0,17.3,0c1.3,0,1.8,0.5,1.8,1.8c0,1.5,0,3.1,0,4.7
		c-1,0-1.9,0-2.9,0c0-0.9,0-1.7,0-2.6c0-0.6-0.2-1-0.8-1c-3.7,0-7.4,0-11.2,0.2c0.5,0.3,1,0.5,1.6,0.8c1.4,0.7,2.8,1.5,4.2,2.2
		c0.9,0.4,1.2,1,1.2,2c0,3.6,0,7.2,0,10.8C14,21.9,14,22.3,14,22.8z"/>
	<path class="st0" d="M25.6,10.8c-0.6-0.6-1.2-1.1-1.8-1.7c-0.8-0.8-0.9-1.6-0.3-2.3C24.1,6.2,25,6.2,25.8,7c1.5,1.5,3,3,4.5,4.5
		c0.8,0.8,0.8,1.5,0,2.4c-1.5,1.5-3,3-4.5,4.5c-0.8,0.8-1.7,0.8-2.3,0.2c-0.6-0.6-0.5-1.5,0.2-2.3c0.6-0.6,1.2-1.2,1.9-1.9
		c-0.4,0-0.7-0.1-1-0.1c-2.3,0-4.6,0-6.8,0c-1.3,0-1.9-0.6-1.9-1.6s0.7-1.6,1.9-1.6c2.2,0,4.5,0,6.7,0c0.3,0,0.6,0,0.9,0
		C25.6,11,25.6,10.9,25.6,10.8z"/>
</g>
</svg>
