<?xml version="1.0" encoding="utf-8"?>
<!-- Generator: Adobe Illustrator 27.9.0, SVG Export Plug-In . SVG Version: 6.00 Build 0)  -->
<svg version="1.1" xmlns="http://www.w3.org/2000/svg" xmlns:xlink="http://www.w3.org/1999/xlink" x="0px" y="0px"
	 viewBox="0 0 32 32" style="enable-background:new 0 0 32 32;" xml:space="preserve">
<style type="text/css">
	.st0{display:none;}
	.st1{display:inline;fill:#AAAAAA;}
	.st2{display:inline;fill:#FFFFFF;}
	.st3{display:inline;}
	.st4{fill:#FFFFFF;}
</style>
<g id="圖層_1" class="st0">
	<circle class="st1" cx="-25.7" cy="-26" r="8.5"/>
	<circle class="st2" cx="-3.8" cy="-26" r="8.5"/>
</g>
<g id="圖層_2" class="st0">
	<g class="st3">
		<path class="st4" d="M12.3,0h-10C1,0,0,1,0,2.3v6c0,1.3,1,2.3,2.3,2.3h10c1.3,0,2.3-1,2.3-2.3v-6C14.7,1,13.6,0,12.3,0z"/>
		<path class="st4" d="M12.3,13.3h-10c-1.3,0-2.3,1-2.3,2.3v14C0,31,1,32,2.3,32h10c1.3,0,2.3-1,2.3-2.3v-14
			C14.7,14.4,13.6,13.3,12.3,13.3z"/>
		<path class="st4" d="M29.7,21.3h-10c-1.3,0-2.3,1-2.3,2.3v6c0,1.3,1,2.3,2.3,2.3h10c1.3,0,2.3-1,2.3-2.3v-6
			C32,22.4,31,21.3,29.7,21.3z"/>
		<path class="st4" d="M29.7,0h-10c-1.3,0-2.3,1-2.3,2.3v14c0,1.3,1,2.3,2.3,2.3h10c1.3,0,2.3-1,2.3-2.3v-14C32,1,31,0,29.7,0z"/>
	</g>
</g>
<g id="圖層_3" class="st0">
	<path id="XMLID_9433_" class="st2" d="M0.9,29.5h30.1c0.5,0,0.9-0.4,0.9-0.9V8.3c0-0.5-0.4-0.9-0.9-0.9h-14l-2.9-4.5
		c-0.2-0.2-0.4-0.4-0.7-0.4H0.9c-0.5,0-0.9,0.4-0.9,0.9v25.2C0.1,29.1,0.5,29.5,0.9,29.5z M1.8,4.3H13l2.2,3.5c-4.5,0-8.9,0-13.4,0
		V4.3z"/>
</g>
<g id="圖層_4" class="st0">
	<g class="st3">
		<path class="st4" d="M2.1,24c1.1,1.9,3.5,2.6,5.5,1.5c0,0,0,0,0,0l0.6-0.3c1.1,1,2.4,1.7,3.8,2.2V28c0,2.2,1.8,4,4,4s4-1.8,4-4
			v-0.7c1.4-0.5,2.7-1.2,3.8-2.2l0.6,0.3c1.9,1.1,4.4,0.4,5.5-1.5c1.1-1.9,0.4-4.4-1.5-5.5l0,0l-0.6-0.3c0.3-1.5,0.3-2.9,0-4.4
			l0.6-0.3c1.9-1.1,2.6-3.6,1.5-5.5c-1.1-1.9-3.6-2.6-5.5-1.5l-0.6,0.3c-1.1-1-2.4-1.7-3.8-2.2V4c0-2.2-1.8-4-4-4s-4,1.8-4,4v0.7
			c-1.4,0.5-2.7,1.2-3.8,2.2L7.6,6.5C5.7,5.4,3.2,6.1,2.1,8s-0.4,4.4,1.5,5.5l0,0l0.6,0.3c-0.3,1.5-0.3,2.9,0,4.4l-0.6,0.3
			C1.7,19.6,1,22.1,2.1,24z M16,10.7c2.9,0,5.3,2.4,5.3,5.3s-2.4,5.3-5.3,5.3s-5.3-2.4-5.3-5.3S13.1,10.7,16,10.7z"/>
	</g>
</g>
<g id="圖層_5" class="st0">
	<g class="st3">
		<path class="st4" d="M26.9,0C19.6,0,12.4,0,5.2,0C3.7,0,3.5,0.2,3.5,1.7c0,4.8,0,9.5,0,14.3c0,0,0,0,0,0c0,4.8,0,9.6,0,14.4
			C3.5,31.5,3.8,32,5,32c7.3,0,14.6,0,22,0c1.2,0,1.6-0.5,1.6-1.6c0-9.6,0-19.2,0-28.8C28.5,0.4,28.1,0,26.9,0z M7.6,4
			C7.6,3.9,7.6,3.9,7.6,4c0.2-0.1,0.5,0,0.8,0c5,0,10.1,0,15.1,0c0.3,0,0.5-0.1,0.8,0C24.3,4,24.4,4,24.4,4c0.6,0.2,0.5,1.1-0.1,1.2
			c0,0,0,0,0,0c-0.8,0.1-1.7,0-2.6,0c-1.9,0-3.8,0-5.8,0c-2.5,0-5,0-7.4,0c-0.3,0-0.6,0.1-0.9,0c0,0,0,0,0,0C7.1,5,7,4.2,7.6,4z
			 M7.3,11c0.1-0.1,0.2-0.1,0.3-0.1c1.4-0.1,2.9,0,4.3,0c1.4,0,2.8,0,4.2,0c0.1,0,0.2,0,0.3,0.1c0.4,0.2,0.4,0.8,0,1.1
			c-0.1,0.1-0.2,0.1-0.3,0.1c-2.9,0-5.8,0-8.7,0c-0.1,0-0.1,0-0.2,0C6.9,11.9,6.8,11.2,7.3,11z M10.7,28.5c-1,0-2,0-3.1,0
			c0-1.4,0-2.7,0-4.1c1,0,2,0,3.1,0C10.7,25.7,10.7,27,10.7,28.5z M15.2,28.5c-1,0-2,0-3.1,0c0-2.6,0-5.1,0-7.8c1,0,2,0,3.1,0
			C15.2,23.3,15.2,25.9,15.2,28.5z M19.7,28.5c-1,0-2,0-3.1,0c0-2,0-3.9,0-6.1c1.1,0,2,0,3.1,0C19.7,24.5,19.7,26.4,19.7,28.5z
			 M24.2,28.5c-1,0-2.1,0-3.1,0c0-3,0-5.9,0-8.8c1.1,0,2.1,0,3.1,0C24.2,22.6,24.2,25.5,24.2,28.5z M23.9,15.2
			c-1.9,1.8-3.8,3.6-5.7,5.5c-1.5-1.2-3-2.4-4.5-3.6c-1.7,1.6-3.4,3.2-5,4.8c-0.5,0.5-0.9,0.8-1.1,0.3c2-2.3,4-4.5,6-6.7
			c1.7,1.4,3.1,2.6,4.6,3.8c1.9-1.8,3.7-3.5,5.5-5.3C24.1,14.3,24.5,14.6,23.9,15.2z M24.4,8.7c-0.1,0-0.2,0-0.3,0
			c-5.4,0-10.8,0-16.2,0c-0.1,0-0.3,0-0.4,0C7.4,8.7,7.3,8.6,7.2,8.5c-0.4-0.3-0.3-1,0.2-1.1c0,0,0.1,0,0.1,0c1.7-0.1,3.3,0,5,0
			c1.2,0,2.3,0,3.5,0c2.7,0,5.4,0,8.1,0c0.1,0,0.2,0,0.3,0.1C25,7.7,25,8.5,24.4,8.7z"/>
	</g>
</g>
<g id="圖層_6" class="st0">
	<path class="st2" d="M16,0c8.9,0,16,7.1,16,16c0,8.9-7.1,16-16,16C7.2,32,0,24.9,0,16C-0.1,7.2,7.1,0,16,0 M21,26.3
		c1.6,0,3.1-0.3,4.4-1.4c1-0.9,1.2-1.8,0.6-3.1c-0.6-1.3-1.6-2.2-2.8-2.9c-1.2-0.7-2.6-0.3-3.3,0.9c-0.3,0.4-0.5,0.8-0.7,1.3
		c-0.1,0.3-0.3,0.4-0.6,0.3c-0.6-0.2-1.2-0.2-1.7-0.5c-2.5-1.2-4.4-3.1-5.6-5.6c-0.3-0.6-0.4-1.2-0.5-1.8c-0.1-0.3,0-0.4,0.3-0.5
		c0.5-0.2,0.9-0.4,1.4-0.7c1.1-0.7,1.4-2,0.9-3.1c-0.7-1.5-1.8-2.6-3.4-3.2C8.9,5.5,8,5.7,7.4,6.4C6.9,7,6.4,7.6,6.2,8.3
		c-0.7,2-0.7,4,0.1,5.9c1.9,5,5.4,8.6,10.2,11C17.9,26,19.4,26.3,21,26.3"/>
</g>
<g id="圖層_7">
	<g>
		<path class="st4" d="M14.2,7.2c2.3,1.9,4.5,3.8,6.8,5.7c-0.3,0.4-0.6,0.7-0.9,1.1c-3.9,4.7-7.9,9.3-11.8,14
			c-0.3,0.4-0.7,0.6-1.1,0.7C6,29,4.7,29.3,3.5,29.6c-0.1,0-0.3,0-0.4-0.1c-0.7-0.6-1.4-1.2-2.1-1.8c-0.1-0.1-0.2-0.3-0.2-0.4
			c0.1-1.3,0.2-2.6,0.3-4c0-0.3,0.2-0.7,0.4-1c2-2.4,4-4.8,6-7.1c2.1-2.5,4.3-5.1,6.4-7.6C14,7.4,14.1,7.3,14.2,7.2"/>
		<path class="st4" d="M21.5,27.5c0.8,0,1.2,0.7,0.8,1.3c-0.1,0.2-0.3,0.4-0.4,0.6c-0.2,0.4,0.1,0.8,0.5,0.8
			c1.4-0.2,2.8-0.4,4.2-0.5c1.4-0.2,2.9-0.4,4.3-0.6c0.5-0.1,0.9,0.3,0.9,0.7c0,0.4-0.3,0.8-0.7,0.9c-1.8,0.2-3.5,0.5-5.3,0.7
			c-1.9,0.2-3.7,0.5-5.6,0.7c-0.2,0-0.4,0.1-0.5,0.1c-0.6,0-1-0.6-0.8-1.2c0.1-0.2,0.2-0.3,0.3-0.4c0.1-0.2,0.2-0.4,0.1-0.7
			c-0.1-0.2-0.4-0.3-0.6-0.2c-1.1,0.2-2.2,0.3-3.3,0.5c-2,0.3-4.1,0.6-6.1,0.9c-1.2,0.2-2.5,0.4-3.7,0.6c-0.5,0.1-0.9-0.2-1-0.6
			c-0.1-0.5,0.2-0.9,0.7-0.9c0.8-0.1,1.6-0.2,2.4-0.4c2.2-0.3,4.3-0.7,6.5-1c2.2-0.3,4.4-0.7,6.6-1C21.2,27.5,21.4,27.5,21.5,27.5"
			/>
		<path class="st4" d="M18.3,2.3c0.4-0.5,0.8-1,1.2-1.4c1-1,2.4-1.1,3.5-0.3c1,0.8,2,1.6,2.9,2.4c1.1,1,1.2,2.5,0.2,3.7
			c-0.3,0.4-0.7,0.8-1,1.2C22.9,6.1,20.6,4.2,18.3,2.3"/>
		<path class="st4" d="M15.2,6c0.8-0.9,1.5-1.8,2.3-2.7C19.7,5.2,22,7.1,24.3,9c-0.8,0.9-1.5,1.8-2.3,2.7C19.7,9.8,17.5,7.9,15.2,6"
			/>
		<path class="st4" d="M0.1,28.7c0.7,0.6,1.3,1.1,2,1.7c-0.6,0.2-1.2,0.3-1.8,0.4C0.1,30.9,0,30.7,0,30.4C0,29.9,0.1,29.3,0.1,28.7"
			/>
	</g>
</g>
</svg>
