<?xml version="1.0" encoding="utf-8"?>
<!-- Generator: Adobe Illustrator 27.9.0, SVG Export Plug-In . SVG Version: 6.00 Build 0)  -->
<svg version="1.1" id="Layer_1" xmlns="http://www.w3.org/2000/svg" xmlns:xlink="http://www.w3.org/1999/xlink" x="0px" y="0px"
	 viewBox="0 0 32 32" style="enable-background:new 0 0 32 32;" xml:space="preserve">
<style type="text/css">
	.st0{fill:#282828;}
</style>
<g>
	<path class="st0" d="M22,8c0,3.3-2.7,6-6,6s-6-2.7-6-6s2.7-6,6-6S22,4.7,22,8"/>
	<path class="st0" d="M4.2,24.9c0,2.8,2.3,5.1,5.1,5.1h13.3c2.8,0,5.1-2.3,5.1-5.1c0-2.5-1-5-2.8-6.8c-1.8-1.8-4.2-2.8-6.8-2.8h-4.4
		c-2.5,0-5,1-6.8,2.8C5.2,19.9,4.2,22.4,4.2,24.9L4.2,24.9z"/>
</g>
</svg>
