<?xml version="1.0" encoding="utf-8"?>
<!-- Generator: Adobe Illustrator 27.9.0, SVG Export Plug-In . SVG Version: 6.00 Build 0)  -->
<svg version="1.1" id="Layer_1" xmlns="http://www.w3.org/2000/svg" xmlns:xlink="http://www.w3.org/1999/xlink" x="0px" y="0px"
	 viewBox="0 0 800 800" style="enable-background:new 0 0 800 800;" xml:space="preserve">
<style type="text/css">
	.st0{fill:#523E24;}
</style>
<path class="st0" d="M400,36.4c-96.4,0-188.9,38.3-257.1,106.5C74.7,211.1,36.4,303.6,36.4,400s38.3,188.9,106.5,257.1
	c68.2,68.2,160.7,106.5,257.1,106.5s188.9-38.3,257.1-106.5c68.2-68.2,106.5-160.7,106.5-257.1c-0.1-96.4-38.4-188.8-106.6-257
	C588.8,74.8,496.4,36.5,400,36.4z M213.6,643.5c16.1-53.8,54.7-98.1,105.9-121.3c51.1-23.2,109.9-23.2,161,0
	c51.2,23.2,89.8,67.5,105.9,121.3C533,684.7,467.5,707,400,707S267,684.7,213.6,643.5z M298.2,345.2c-0.5-41.6,24.3-79.4,62.7-95.6
	c38.4-16.2,82.8-7.6,112.3,21.9c29.5,29.4,38.3,73.7,22.2,112.2c-16,38.4-53.7,63.4-95.4,63c-56.6,0-102.5-45.9-102.5-102.5
	L298.2,345.2z M633.8,602.5c-25.7-60.2-73.7-108.2-133.9-133.9c38-29.7,60.3-75.2,60.4-123.4c0-56.6-30.2-108.9-79.3-137.3
	c-49.1-28.3-109.5-28.3-158.5,0c-49.1,28.3-79.3,80.6-79.3,137.3c0.1,48.2,22.4,93.8,60.4,123.4c-60.7,25-109.4,72.6-135.8,132.7
	c-52-59.7-79-137.1-75.4-216.2c3.6-79,37.6-153.7,94.8-208.4c57.3-54.7,133.4-85.2,212.5-85.2s155.3,30.5,212.5,85.2
	c57.2,54.7,91.2,129.3,94.8,208.4C711,464.3,684,541.7,632,601.4L633.8,602.5z"/>
</svg>
