<?xml version="1.0" encoding="utf-8"?>
<!-- Generator: Adobe Illustrator 27.9.0, SVG Export Plug-In . SVG Version: 6.00 Build 0)  -->
<svg version="1.1" id="Layer_1" xmlns="http://www.w3.org/2000/svg" xmlns:xlink="http://www.w3.org/1999/xlink" x="0px" y="0px"
	 viewBox="0 0 800 800" style="enable-background:new 0 0 800 800;" xml:space="preserve">
<style type="text/css">
	.st0{fill:#523E24;}
</style>
<path class="st0" d="M693.9,579.1c-34.7-26.1-55.3-67.4-55.3-110.9V382c0-96.5-60.4-179-145.4-211.8c7.2-13.2,11.2-28.3,11.2-44.4
	c0-51.2-41.6-92.8-92.8-92.8c-51.2,0-92.8,41.6-92.8,92.8c0,16,4.1,31.2,11.3,44.3C245.1,203,184.6,285.5,184.6,382v86.2
	c0,44.4-21.4,86.4-57.3,112.4c-11.2,8.1-15.9,22.5-11.6,35.6s16.5,22,30.3,22h172.8v29.2c0,51.2,41.6,92.8,92.8,92.8
	c51.2,0,92.9-41.6,92.6-92.8v-29.2h173c0.1,0,0.1,0,0.2,0c17.6,0,31.9-14.2,31.8-31.9C709.2,594.8,703.1,584.7,693.9,579.1z
	 M382.5,125.9c0-16,13-29.1,29.1-29.1c16.1,0,29.2,13,29.1,29.1c0,15.4-11.9,28.1-27.1,29.1c-0.7,0-1.3,0-2,0c-0.7,0-1.3,0-2,0
	C394.5,154,382.5,141.3,382.5,125.9z M440.6,667.4c0,16-13,29.1-29.1,29.1c-16,0-29.1-13-29.1-29.1v-29.2h58.2V667.4z M218.1,574.6
	c19.4-31.6,30.2-68.4,30.2-106.3v-86.2c0-90.1,73.2-163.4,163.3-163.4S575,291.9,575,382v86.2c0,38,10.7,74.8,30.2,106.4H218.1z"/>
</svg>
